<svg width="103" height="59" viewBox="0 0 103 59" fill="none" xmlns="http://www.w3.org/2000/svg">
<path d="M44.6335 8.50108L43.8606 4.63672L42.8945 9.66039L44.6335 8.50108Z" fill="#F26D21"/>
<path d="M53.1358 0L43.8613 4.83045L50.0443 3.47793L53.1358 0Z" fill="#FCE400"/>
<path d="M44.6342 8.50219L50.0443 3.47852L43.8613 4.83104L44.6342 8.50219Z" fill="#FBB216"/>
<path d="M47.9178 8.11575L50.0432 3.47852L45.0195 8.11575H47.9178Z" fill="#F6921E"/>
<path d="M45.9863 12.7525L47.9185 8.11523L46.9524 16.2304L45.9863 12.7525Z" fill="#ED3224"/>
<path d="M46.9512 16.037L49.8494 8.50153L47.9173 7.92188L46.9512 16.037Z" fill="#F6921E"/>
<path d="M46.9512 16.0373L52.1681 9.27468L49.6562 8.30859L46.9512 16.0373Z" fill="#FBB216"/>
<path d="M62.9887 26.4708L63.5684 22.9928L56.2261 18.5488L62.9887 26.4708Z" fill="#FFCD03"/>
<path d="M39.6109 26.4708L39.0312 22.9928L46.3735 18.5488L39.6109 26.4708Z" fill="#FFCD03"/>
<path d="M64.9221 32.0743L70.5254 28.5964L64.1492 26.8574L64.9221 32.0743Z" fill="#F26D21"/>
<path d="M37.6775 32.0743L32.0742 28.5964L38.4504 26.8574L37.6775 32.0743Z" fill="#F26D21"/>
<path d="M62.4086 29.9497L57.7714 25.3125L62.9883 26.4718L62.4086 29.9497Z" fill="#E01F26"/>
<path d="M40.189 29.9495L45.2127 24.9258L39.6094 26.4715L40.189 29.9495Z" fill="#E01F26"/>
<path d="M57.7714 25.3117L56.6121 18.9355L62.9883 26.4711L57.7714 25.3117Z" fill="#ED3224"/>
<path d="M44.8263 25.3116L46.1788 18.7422L39.6094 26.4709L44.8263 25.3116Z" fill="#ED3224"/>
<path d="M51.3956 22.4126V15.0703L44.8262 25.1177L51.3956 22.4126Z" fill="#FCE400"/>
<path d="M57.7727 25.3109L51.3965 15.0703V22.4125L57.7727 25.3109Z" fill="#FBB216"/>
<path d="M51.3965 25.3123V22.4141L57.7727 25.3123H51.3965Z" fill="#F26D21"/>
<path d="M51.3957 28.0174L45.0195 25.1191L51.3957 25.3124V28.0174Z" fill="#E01F26"/>
<path d="M57.5795 25.3125H51.3965V28.0176L57.5795 25.3125Z" fill="#ED3224"/>
<path d="M51.3957 35.3597L45.0195 25.1191L51.3957 28.0174V35.3597Z" fill="#EF4C23"/>
<path d="M51.3951 35.3598L57.5781 25.3125L51.3951 28.0176V35.3598Z" fill="#F6921E"/>
<path d="M56.2266 53.1354L51.3961 35.3594L55.4537 41.7356L56.2266 53.1354Z" fill="#EF4C23"/>
<path d="M46.7598 53.3288L51.5902 35.5527L47.5326 41.9289L46.7598 53.3288Z" fill="#EF4C23"/>
<path d="M58.7383 46.9513L56.2264 53.1342L55.4536 41.7344L58.7383 46.9513Z" fill="#F16A22"/>
<path d="M44.2461 47.1446L46.7579 53.3276L47.5308 41.9277L44.2461 47.1446Z" fill="#F16A22"/>
<path d="M60.0898 49.463L56.2255 53.1342L58.5441 46.9512L60.0898 49.463Z" fill="#E01F26"/>
<path d="M42.8945 49.6564L46.7589 53.3275L44.4403 47.1445L42.8945 49.6564Z" fill="#E01F26"/>
<path d="M58.5452 50.9232V46.9512L56.2266 53.1342L58.5452 50.9232Z" fill="#871719"/>
<path d="M44.4411 51.1165V47.1445L46.7598 53.3275L44.4411 51.1165Z" fill="#871719"/>
<path d="M51.3965 49.0779V35.3594L52.9422 40.7695L51.3965 49.0779Z" fill="#F6921E"/>
<path d="M51.3954 48.8852C51.3954 49.0398 50.3649 43.5395 49.8496 40.77L51.3954 36.1328C51.4598 40.126 51.3954 48.7306 51.3954 48.8852Z" fill="#EF4C23"/>
<path d="M48.8848 48.1118L49.8509 40.7695L51.3966 48.8847L51.0102 49.8508L48.8848 48.1118Z" fill="#ED3224"/>
<path d="M53.9082 48.112L52.9421 40.9629L51.3964 48.8848L51.7828 49.8509L53.9082 48.112Z" fill="#E01F26"/>
<path d="M49.2712 56.0333L48.8848 48.1113L51.0102 49.8503L51.3966 48.691L51.2034 50.4299L49.2712 56.0333Z" fill="#E01F26"/>
<path d="M53.5218 56.0333L53.9082 48.1113L51.7828 49.8503L51.3964 48.691L51.5896 50.4299L53.5218 56.0333Z" fill="#ED3224"/>
<path d="M47.7246 54.6807L48.8839 48.1113L49.2704 56.0333L47.7246 54.6807Z" fill="#ED3224"/>
<path d="M55.0664 54.6807L53.9071 48.1113L53.5207 56.0333L55.0664 54.6807Z" fill="#E01F26"/>
<path d="M51.3949 58.7389L49.2695 56.0338L51.3949 48.6914V58.7389Z" fill="#E01F26"/>
<path d="M51.3961 58.7384L53.5215 56.0333L51.3961 48.6914V58.7384Z" fill="#E01F26"/>
<path d="M92.5523 11.7852H102.6L80.3795 17.1953L92.5523 11.7852Z" fill="#F26D21"/>
<path d="M10.0473 11.7871H0L22.2201 17.1972L10.0473 11.7871Z" fill="#F26D21"/>
<path d="M73.0365 11.7852H77.6737L80.1855 17.1953L73.0365 11.7852Z" fill="#FCE400"/>
<path d="M29.5631 11.7852H24.9259L22.4141 17.1953L29.5631 11.7852Z" fill="#FCE400"/>
<path d="M58.7368 11.7852H67.4316L62.7944 15.8427C61.5707 14.5546 59.046 11.7852 58.7368 11.7852Z" fill="#F6921E"/>
<path d="M43.8608 11.7871H35.166L39.8032 15.8447C41.027 14.5566 43.5517 11.7871 43.8608 11.7871Z" fill="#F6921E"/>
<path d="M85.4019 20.8683L92.7441 17.0039L80.3782 17.1971L85.4019 20.8683Z" fill="#FBB216"/>
<path d="M17.1958 20.8683L9.85352 17.0039L22.2195 17.1971L17.1958 20.8683Z" fill="#FBB216"/>
<path d="M102.6 11.7852L92.359 17.1953C88.8811 17.1309 80.6887 17.1953 80.3795 17.1953C80.0704 17.1953 95.4505 13.4597 102.6 11.7852Z" fill="#FCE400"/>
<path d="M0 11.7871L10.2406 17.1972C13.7185 17.1328 21.9109 17.1972 22.2201 17.1972C22.5292 17.1972 7.14907 13.4617 0 11.7871Z" fill="#FCE400"/>
<path d="M81.9258 22.7991L64.3429 17.7754L70.1395 21.4465L81.9258 22.7991Z" fill="#FFCD03"/>
<path d="M20.6738 22.7991L38.2567 17.7754L32.4601 21.4465L20.6738 22.7991Z" fill="#FFCD03"/>
<path d="M81.7305 22.7998L70.3306 21.4473L76.9 25.5048L81.7305 22.7998Z" fill="#ED3224"/>
<path d="M20.8672 22.7998L32.2671 21.4473L25.6976 25.5048L20.8672 22.7998Z" fill="#ED3224"/>
<path d="M72.4564 27.6302L70.331 21.4473L76.9004 25.5048L72.4564 27.6302Z" fill="#F26D21"/>
<path d="M30.1413 27.6302L32.2667 21.4473L25.6973 25.5048L30.1413 27.6302Z" fill="#F26D21"/>
<path d="M64.3419 22.6066L72.457 27.6302L70.3316 21.4473L64.3419 22.6066Z" fill="#ED3224"/>
<path d="M38.2577 22.6066L30.1426 27.6302L32.268 21.4473L38.2577 22.6066Z" fill="#ED3224"/>
<path d="M66.2734 20.8677L55.8397 16.2305L60.4769 20.288L66.2734 20.8677Z" fill="#FBB216"/>
<path d="M36.3242 20.8677L46.758 16.2305L42.1208 20.288L36.3242 20.8677Z" fill="#FBB216"/>
<path d="M64.7285 20.6736L56.4201 12.3652L55.454 16.2296L64.7285 20.6736Z" fill="#F6921E"/>
<path d="M37.8711 20.6736L46.1795 12.3652L47.1456 16.2296L37.8711 20.6736Z" fill="#F6921E"/>
<path d="M64.7285 17.7755L56.6134 12.5586L64.7285 20.6738V17.7755Z" fill="#E01F26"/>
<path d="M37.8711 17.7755L45.9863 12.5586L37.8711 20.6738V17.7755Z" fill="#E01F26"/>
<path d="M57.7727 25.3109L51.3965 15.0703L56.6134 18.9347L57.7727 25.3109Z" fill="#E01F26"/>
<path d="M56.6137 12.5587L54.4883 10.0469L55.6476 16.2299L56.6137 12.5587Z" fill="#FCE400"/>
<path d="M45.9859 12.5587L48.1113 10.0469L46.952 16.2299L45.9859 12.5587Z" fill="#FCE400"/>
<path d="M42.1211 7.72821L43.8601 4.63672L43.0872 8.6943L42.1211 7.72821Z" fill="#EF4C23"/>
<path d="M42.894 10.0471L42.1211 7.72852L43.0872 8.69461L42.894 10.0471Z" fill="#E01F26"/>
<circle cx="43.8612" cy="4.82994" r="0.193218" fill="#EF4C23"/>
<path d="M46.9512 16.038L54.4867 10.0483L52.1681 9.27539L46.9512 16.038Z" fill="#FCE400"/>
<path d="M51.3959 5.60391L50.0434 3.47852L47.918 7.92253L51.3959 5.60391Z" fill="#ED3224"/>
<path d="M54.4868 10.0475L51.3954 5.60352L49.8496 6.56961L54.4868 10.0475Z" fill="#EF4C23"/>
<path d="M54.4874 10.0482L47.918 7.92284L48.8841 7.14997L49.8501 6.57031L54.4874 10.0482Z" fill="#F26D21"/>
<path d="M56.6121 18.9356L52.3613 13.7188L54.4867 15.2645L57.385 17.3899L62.9883 22.6068L56.6121 18.9356Z" fill="#F6921E"/>
<path d="M45.9855 18.9356L50.2363 13.7188L48.1109 15.2645L45.2127 17.3899L39.6093 22.6068L45.9855 18.9356Z" fill="#F6921E"/>
<path d="M55.6459 16.2299L54.4866 10.0469L52.168 13.718L55.6459 16.2299Z" fill="#F26D21"/>
<path d="M46.9518 16.2299L48.1111 10.0469L50.4297 13.718L46.9518 16.2299Z" fill="#F26D21"/>
<path d="M52.1694 13.332L51.3965 15.071L56.6134 18.9354L52.1694 13.332Z" fill="#FBB216"/>
<path d="M51.3949 15.0705L54.4864 10.0469L50.4288 14.1045L46.5645 18.5485L51.3949 15.0705Z" fill="#ED3224"/>
<path d="M64.7284 20.8669L64.5352 17.7754L70.1385 21.4465L64.7284 20.8669Z" fill="#F26D21"/>
<path d="M37.8693 20.8669L38.0625 17.7754L32.4592 21.4465L37.8693 20.8669Z" fill="#F26D21"/>
<path d="M62.7944 15.8427C64.2113 14.619 67.1225 12.0943 67.4316 11.7852L64.7266 17.7749L62.7944 15.8427Z" fill="#FDE404"/>
<path d="M39.8032 15.8447C38.3863 14.621 35.4752 12.0963 35.166 11.7871L37.8711 17.7769L39.8032 15.8447Z" fill="#FDE404"/>
<path d="M85.4023 20.8676L64.728 17.5829L66.8534 16.0371L85.4023 20.8676Z" fill="#F6921E"/>
<path d="M17.1953 20.8676L37.8696 17.5829L35.7442 16.0371L17.1953 20.8676Z" fill="#F6921E"/>
<path d="M77.673 11.7871H92.5508L80.1848 17.3904L77.673 11.7871Z" fill="#FBB216"/>
<path d="M24.9266 11.7852H10.0488L22.4148 17.3885L24.9266 11.7852Z" fill="#FBB216"/>
<path d="M73.0364 11.7852L85.4023 20.8664L66.8534 16.036L73.0364 11.7852Z" fill="#F26D21"/>
<path d="M29.5613 11.7852L17.1953 20.8664L35.7442 16.036L29.5613 11.7852Z" fill="#F26D21"/>
<path d="M67.4318 11.7852H73.0352L64.7268 17.5817L67.4318 11.7852Z" fill="#FBB216"/>
<path d="M35.1658 11.7852H29.5625L37.8709 17.5817L35.1658 11.7852Z" fill="#FBB216"/>
<path d="M56.6136 12.558L58.9323 11.7852L65.1152 18.1614L56.6136 12.558Z" fill="#EF4C23"/>
<path d="M45.986 12.56L43.6674 11.7871L37.4844 18.1633L45.986 12.56Z" fill="#EF4C23"/>
<path d="M64.3423 22.6056L60.0915 20.0938L65.6948 20.6734L70.332 21.4463L64.3423 22.6056Z" fill="#F6921E"/>
<path d="M38.2573 22.6075L42.5081 20.0957L36.9048 20.6754L32.2676 21.4482L38.2573 22.6075Z" fill="#F6921E"/>
<path d="M70.5254 28.5955L63.5695 22.9922L64.1492 26.8565L70.5254 28.5955Z" fill="#ED3224"/>
<path d="M32.0742 28.5955L39.0301 22.9922L38.4504 26.8565L32.0742 28.5955Z" fill="#ED3224"/>
<path d="M64.9199 32.0734L63.5674 22.9922L62.2149 29.7548L64.9199 32.0734Z" fill="#871719"/>
<path d="M37.6777 32.0734L39.0303 22.9922L40.3828 29.7548L37.6777 32.0734Z" fill="#871719"/>
<path d="M46.9532 18.5485L39.0312 22.9925L46.9532 16.0366L54.4887 10.0469L46.9532 18.5485Z" fill="#EF4C23"/>
<path d="M51.3954 25.3123V22.4141L44.6328 25.1191L51.3954 25.3123Z" fill="#ED3224"/>
<path d="M60.0898 49.4629L52.5543 33.4258L51.395 35.358L60.0898 49.4629Z" fill="#E01F26"/>
<path d="M42.8945 49.6562L50.43 33.6191L51.5893 35.5513L42.8945 49.6562Z" fill="#E01F26"/>
<path d="M44.8262 25.1177L51.3956 15.0703L45.9855 18.9347L44.8262 25.1177Z" fill="#FBB216"/>
</svg>
